<svg width="62" height="62" viewBox="0 0 62 62" fill="none" xmlns="http://www.w3.org/2000/svg">
<path fill-rule="evenodd" clip-rule="evenodd" d="M49.816 2H55C58.86 2 62 5.14 62 9V55C62 58.86 58.86 62 55 62H7C3.14 62 0 58.86 0 55V9C0 5.14 3.14 2 7 2H12.184C12.598 0.839 13.698 0 15 0C16.302 0 17.402 0.839 17.816 2H44.184C44.598 0.839 45.698 0 47 0C48.302 0 49.402 0.839 49.816 2ZM50 11C50 12.654 48.654 14 47 14C45.346 14 44 12.654 44 11V9.354C43.368 10.071 43 11.006 43 12C43 14.206 44.794 16 47 16C49.206 16 51 14.206 51 12C51 11.006 50.632 10.071 50 9.354V11ZM47 2C46.449 2 46 2.449 46 3V11C46 11.551 46.449 12 47 12C47.551 12 48 11.551 48 11V3C48 2.449 47.551 2 47 2ZM18 11C18 12.654 16.654 14 15 14C13.346 14 12 12.654 12 11V9.354C11.368 10.071 11 11.006 11 12C11 14.206 12.794 16 15 16C17.206 16 19 14.206 19 12C19 11.006 18.632 10.071 18 9.354V11ZM15 2C14.449 2 14 2.449 14 3V11C14 11.551 14.449 12 15 12C15.551 12 16 11.551 16 11V3C16 2.449 15.551 2 15 2ZM12 4H7C4.243 4 2 6.243 2 9V20H60V9C60 6.243 57.757 4 55 4H50V6.816C51.838 7.881 53 9.843 53 12C53 15.309 50.309 18 47 18C43.691 18 41 15.309 41 12C41 9.843 42.162 7.881 44 6.816V4H18V6.816C19.838 7.881 21 9.843 21 12C21 15.309 18.309 18 15 18C11.691 18 9 15.309 9 12C9 9.843 10.162 7.881 12 6.816V4ZM7 60H55C57.757 60 60 57.757 60 55V22H2V55C2 57.757 4.243 60 7 60ZM36 17H26C24.346 17 23 15.654 23 14V10C23 8.346 24.346 7 26 7H36C37.654 7 39 8.346 39 10V14C39 15.654 37.654 17 36 17ZM26 9C25.449 9 25 9.449 25 10V14C25 14.551 25.449 15 26 15H36C36.551 15 37 14.551 37 14V10C37 9.449 36.551 9 36 9H26ZM10 34C8.346 34 7 35.346 7 37C7 38.654 8.346 40 10 40H12C13.654 40 15 38.654 15 37C15 35.346 13.654 34 12 34H10ZM10 38C9.449 38 9 37.551 9 37C9 36.449 9.449 36 10 36H12C12.551 36 13 36.449 13 37C13 37.551 12.551 38 12 38H10ZM30 34H32C33.654 34 35 35.346 35 37C35 38.654 33.654 40 32 40H30C28.346 40 27 38.654 27 37C27 35.346 28.346 34 30 34ZM30 38H32C32.551 38 33 37.551 33 37C33 36.449 32.551 36 32 36H30C29.449 36 29 36.449 29 37C29 37.551 29.449 38 30 38ZM50 34C48.346 34 47 35.346 47 37C47 38.654 48.346 40 50 40H52C53.654 40 55 38.654 55 37C55 35.346 53.654 34 52 34H50ZM50 38C49.449 38 49 37.551 49 37C49 36.449 49.449 36 50 36H52C52.551 36 53 36.449 53 37C53 37.551 52.551 38 52 38H50ZM7 45C7 43.346 8.346 42 10 42H12C13.654 42 15 43.346 15 45C15 46.654 13.654 48 12 48H10C8.346 48 7 46.654 7 45ZM9 45C9 45.551 9.449 46 10 46H12C12.551 46 13 45.551 13 45C13 44.449 12.551 44 12 44H10C9.449 44 9 44.449 9 45ZM20 42C18.346 42 17 43.346 17 45C17 46.654 18.346 48 20 48H22C23.654 48 25 46.654 25 45C25 43.346 23.654 42 22 42H20ZM20 46C19.449 46 19 45.551 19 45C19 44.449 19.449 44 20 44H22C22.551 44 23 44.449 23 45C23 45.551 22.551 46 22 46H20ZM30 42H32C33.654 42 35 43.346 35 45C35 46.654 33.654 48 32 48H30C28.346 48 27 46.654 27 45C27 43.346 28.346 42 30 42ZM30 46H32C32.551 46 33 45.551 33 45C33 44.449 32.551 44 32 44H30C29.449 44 29 44.449 29 45C29 45.551 29.449 46 30 46ZM50 42C48.346 42 47 43.346 47 45C47 46.654 48.346 48 50 48H52C53.654 48 55 46.654 55 45C55 43.346 53.654 42 52 42H50ZM50 46C49.449 46 49 45.551 49 45C49 44.449 49.449 44 50 44H52C52.551 44 53 44.449 53 45C53 45.551 52.551 46 52 46H50ZM7 53C7 51.346 8.346 50 10 50H12C13.654 50 15 51.346 15 53C15 54.654 13.654 56 12 56H10C8.346 56 7 54.654 7 53ZM9 53C9 53.551 9.449 54 10 54H12C12.551 54 13 53.551 13 53C13 52.449 12.551 52 12 52H10C9.449 52 9 52.449 9 53ZM20 50C18.346 50 17 51.346 17 53C17 54.654 18.346 56 20 56H22C23.654 56 25 54.654 25 53C25 51.346 23.654 50 22 50H20ZM20 54C19.449 54 19 53.551 19 53C19 52.449 19.449 52 20 52H22C22.551 52 23 52.449 23 53C23 53.551 22.551 54 22 54H20ZM30 50H32C33.654 50 35 51.346 35 53C35 54.654 33.654 56 32 56H30C28.346 56 27 54.654 27 53C27 51.346 28.346 50 30 50ZM30 54H32C32.551 54 33 53.551 33 53C33 52.449 32.551 52 32 52H30C29.449 52 29 52.449 29 53C29 53.551 29.449 54 30 54ZM50 50C48.346 50 47 51.346 47 53C47 54.654 48.346 56 50 56H52C53.654 56 55 54.654 55 53C55 51.346 53.654 50 52 50H50ZM50 54C49.449 54 49 53.551 49 53C49 52.449 49.449 52 50 52H52C52.551 52 53 52.449 53 53C53 53.551 52.551 54 52 54H50ZM7 29C7 27.346 8.346 26 10 26H12C13.654 26 15 27.346 15 29C15 30.654 13.654 32 12 32H10C8.346 32 7 30.654 7 29ZM9 29C9 29.551 9.449 30 10 30H12C12.551 30 13 29.551 13 29C13 28.449 12.551 28 12 28H10C9.449 28 9 28.449 9 29ZM20 32H22C23.654 32 25 30.654 25 29C25 27.346 23.654 26 22 26H20C18.346 26 17 27.346 17 29C17 30.654 18.346 32 20 32ZM22 28C22.551 28 23 28.449 23 29C23 29.551 22.551 30 22 30H20C19.449 30 19 29.551 19 29C19 28.449 19.449 28 20 28H22ZM22 40H20C18.346 40 17 38.654 17 37C17 35.346 18.346 34 20 34H22C23.654 34 25 35.346 25 37C25 38.654 23.654 40 22 40ZM23 37C23 36.449 22.551 36 22 36H20C19.449 36 19 36.449 19 37C19 37.551 19.449 38 20 38H22C22.551 38 23 37.551 23 37ZM32 26H30C28.346 26 27 27.346 27 29C27 30.654 28.346 32 30 32H32C33.654 32 35 30.654 35 29C35 27.346 33.654 26 32 26ZM32 30H30C29.449 30 29 29.551 29 29C29 28.449 29.449 28 30 28H32C32.551 28 33 28.449 33 29C33 29.551 32.551 30 32 30ZM50 26H52C53.654 26 55 27.346 55 29C55 30.654 53.654 32 52 32H50C48.346 32 47 30.654 47 29C47 27.346 48.346 26 50 26ZM50 30H52C52.551 30 53 29.551 53 29C53 28.449 52.551 28 52 28H50C49.449 28 49 28.449 49 29C49 29.551 49.449 30 50 30ZM39.933 45.5189L38.707 44.2929L37.293 45.7069L39.293 47.7069C39.481 47.8949 39.735 47.9999 40 47.9999L40.0217 47.9997C40.0294 47.9996 40.0372 47.9994 40.045 47.9989C40.326 47.9859 40.588 47.8559 40.768 47.6399L45.768 41.6399L44.232 40.3599L39.933 45.5189ZM38.414 35.933L39.64 37.159L43.939 32L45.475 33.28L40.475 39.28C40.295 39.496 40.033 39.626 39.752 39.639C39.737 39.64 39.722 39.64 39.707 39.64C39.442 39.64 39.188 39.535 39 39.347L37 37.347L38.414 35.933ZM39.64 29.159L38.414 27.933L37 29.347L39 31.347C39.188 31.535 39.442 31.64 39.707 31.64C39.722 31.64 39.737 31.64 39.752 31.639C40.033 31.626 40.295 31.496 40.475 31.28L45.475 25.28L43.939 24L39.64 29.159ZM38.414 51.933L39.64 53.159L43.939 48L45.475 49.28L40.475 55.28C40.295 55.496 40.033 55.626 39.752 55.639C39.737 55.64 39.722 55.64 39.707 55.64C39.442 55.64 39.188 55.535 39 55.347L37 53.347L38.414 51.933Z" fill="url(#paint0_linear)"/>
<defs>
<linearGradient id="paint0_linear" x1="31" y1="0" x2="31" y2="62" gradientUnits="userSpaceOnUse">
<stop stop-color="#3580B3"/>
<stop offset="1" stop-color="#DB6F5B"/>
</linearGradient>
</defs>
</svg>
