<svg width="64" height="59" viewBox="0 0 64 59" fill="none" xmlns="http://www.w3.org/2000/svg">
<path d="M61.8125 4.02588H2.1875C0.981375 4.02588 0 4.93058 0 6.04248V13.1403C0 14.2578 1.875 14.2578 1.875 13.1403V6.04248C1.875 5.88369 2.01513 5.75439 2.1875 5.75439H61.8125C61.9849 5.75439 62.125 5.88369 62.125 6.04248V48.1882C62.125 48.347 61.9849 48.4763 61.8125 48.4763H49.7985V46.6779H59.2277C59.7456 46.6779 60.1652 46.291 60.1652 45.8137V36.7633C60.1652 35.6458 58.2902 35.6458 58.2902 36.7633V44.9494H49.7985V41.1148C49.829 41.1172 49.8598 41.1196 49.8886 41.122C50.6669 41.185 51.6349 41.2635 52.3055 40.6441C52.9754 40.0254 52.8906 39.1321 52.8225 38.4144C52.7491 37.644 52.8281 37.4331 53.4704 36.941C55.124 35.6734 55.1548 34.3162 53.4704 33.0253C52.8281 32.5328 52.7495 32.3221 52.8225 31.5517C53.006 29.6184 52.0265 28.6709 49.8886 28.8441C49.0543 28.9117 48.8279 28.8386 48.2959 28.2464C46.923 26.7184 45.4498 26.6902 44.0514 28.2464C43.5194 28.8385 43.2931 28.9119 42.4588 28.8441C40.3601 28.6742 39.3375 29.5822 39.5247 31.5517C39.5978 32.3223 39.5191 32.5328 38.8769 33.0253C37.2233 34.2928 37.1926 35.6502 38.8769 36.941C39.5191 37.4335 39.5978 37.6441 39.5247 38.4146C39.3279 40.4852 40.4006 41.2859 42.5485 41.1149V44.9496H5.70988V9.28114H58.2902V32.1539C58.2902 33.2713 60.1652 33.2713 60.1652 32.1539V8.41688C60.1652 7.93958 59.7456 7.55263 59.2277 7.55263H4.77238C4.2545 7.55263 3.83488 7.93958 3.83488 8.41688V45.8137C3.83488 46.291 4.2545 46.6779 4.77238 46.6779H42.5485V48.4763H2.1875C2.01513 48.4763 1.875 48.347 1.875 48.1882V17.5191C1.875 16.4017 0 16.4017 0 17.5191V48.1882C0 49.3001 0.981375 50.2048 2.1875 50.2048H42.5485V54.117C42.682 54.8273 43.1264 55.0885 43.8814 54.9006L46.1735 53.9178L48.4656 54.9006C49.0327 55.1437 49.7985 54.7594 49.7985 54.117V50.2048H61.8125C63.0186 50.2048 64 49.3001 64 48.1882V6.04248C64 4.93047 63.0186 4.02588 61.8125 4.02588ZM42.2944 39.4C41.3559 39.4761 41.3104 39.4298 41.3924 38.5651C41.5184 37.2379 41.1872 36.4636 40.0754 35.6115C39.3146 35.0283 39.3148 34.9374 40.0754 34.3542C41.1872 33.5021 41.5185 32.7278 41.3924 31.4007C41.3104 30.5359 41.3559 30.49 42.2944 30.5657C43.7341 30.6827 44.573 30.3751 45.4951 29.3487C46.1252 28.6477 46.2216 28.6477 46.8517 29.3487C47.7741 30.3751 48.6128 30.6822 50.0525 30.5657C50.9911 30.4896 51.0365 30.5359 50.9545 31.4006C50.8285 32.7278 51.1596 33.502 52.2715 34.3541C53.0321 34.9373 53.0325 35.0284 52.2714 35.6115C51.1595 36.4637 50.8283 37.2377 50.9544 38.5648C51.0368 39.4296 50.991 39.476 50.0526 39.4C49.4637 39.3522 48.7957 39.2981 48.2077 39.5233C47.6386 39.7412 47.2385 40.1863 46.8516 40.6169C46.6694 40.8198 46.3368 41.19 46.1732 41.2563C46.0099 41.19 45.6772 40.8198 45.495 40.6169C45.1081 40.1864 44.7081 39.7412 44.1389 39.5233C43.5321 39.3527 42.9173 39.3116 42.2944 39.4ZM46.5689 52.1811C46.3181 52.0735 46.0289 52.0735 45.7781 52.1811L44.4235 52.762V42.1202C44.8684 42.5711 45.4173 42.9897 46.1735 42.9897C46.9297 42.9897 47.4786 42.5712 47.9235 42.1203V52.762L46.5689 52.1811Z" fill="url(#paint0_linear)"/>
<path d="M12.1579 16.5156H44.4762C45.6884 16.5156 45.6884 14.7871 44.4762 14.7871H12.1579C10.9456 14.7871 10.9456 16.5156 12.1579 16.5156Z" fill="url(#paint1_linear)"/>
<path d="M52.7796 20.9082C52.7796 20.4309 52.36 20.0439 51.8421 20.0439H12.1579C10.9457 20.0439 10.9457 21.7725 12.1579 21.7725H51.8423C52.36 21.7725 52.7796 21.3855 52.7796 20.9082Z" fill="url(#paint2_linear)"/>
<path d="M35.6421 26.1646C35.6421 25.6872 35.2225 25.3003 34.7046 25.3003H12.1579C10.9457 25.3003 10.9457 27.0288 12.1579 27.0288H34.7046C35.2224 27.0288 35.6421 26.6419 35.6421 26.1646Z" fill="url(#paint3_linear)"/>
<path d="M23.3314 38.2117C22.8203 38.2126 22.309 38.2131 21.7979 38.2135C20.8145 38.2142 20.2731 37.9725 20.0723 37.0112C19.8889 36.1337 18.5159 36.2455 18.2643 37.0112C18.1529 37.3504 17.5904 38.3212 17.099 38.2418C16.8386 38.1998 16.7249 37.8295 16.6286 37.6378C16.4413 37.2645 16.3048 36.8689 16.1879 36.4725C15.6944 34.7977 15.5959 33.049 15.2871 31.3426C15.1081 30.3531 13.472 30.6329 13.4456 31.5724C13.3616 34.5652 12.8309 37.5169 11.6751 40.322C11.2463 41.3629 13.0581 41.813 13.4831 40.7816C13.9288 39.7 14.2825 38.5925 14.557 37.4685C14.7043 37.878 14.8799 38.2797 15.0943 38.6705C15.6418 39.668 16.7584 40.2581 17.9531 39.8144C18.3795 39.6561 18.7685 39.3793 19.0996 39.0425C19.9866 39.9854 21.3063 39.9427 22.5374 39.9413C24.3933 39.9391 26.2491 39.9351 28.1051 39.9304C29.3115 39.9272 29.3138 38.1987 28.1051 38.2018C26.5139 38.206 24.9226 38.2093 23.3314 38.2117Z" fill="url(#paint4_linear)"/>
<path d="M46.1735 38.3588C48.1926 38.3588 49.8354 36.8445 49.8354 34.9831C49.8354 33.1217 48.1926 31.6074 46.1735 31.6074C44.1545 31.6074 42.5117 33.1218 42.5117 34.9831C42.5117 36.8444 44.1544 38.3588 46.1735 38.3588ZM46.1735 33.3359C47.1587 33.3359 47.9604 34.0749 47.9604 34.9831C47.9604 35.8913 47.1587 36.6303 46.1735 36.6303C45.1882 36.6303 44.3867 35.8914 44.3867 34.9831C44.3867 34.0748 45.1882 33.3359 46.1735 33.3359Z" fill="url(#paint5_linear)"/>
<defs>
<linearGradient id="paint0_linear" x1="32" y1="4.02588" x2="32" y2="54.9742" gradientUnits="userSpaceOnUse">
<stop stop-color="#3780B2"/>
<stop offset="1" stop-color="#DA6F5B"/>
</linearGradient>
<linearGradient id="paint1_linear" x1="28.317" y1="14.7871" x2="28.317" y2="16.5156" gradientUnits="userSpaceOnUse">
<stop stop-color="#3780B2"/>
<stop offset="1" stop-color="#DA6F5B"/>
</linearGradient>
<linearGradient id="paint2_linear" x1="32.0142" y1="20.0439" x2="32.0142" y2="21.7725" gradientUnits="userSpaceOnUse">
<stop stop-color="#3780B2"/>
<stop offset="1" stop-color="#DA6F5B"/>
</linearGradient>
<linearGradient id="paint3_linear" x1="23.4455" y1="25.3003" x2="23.4455" y2="27.0288" gradientUnits="userSpaceOnUse">
<stop stop-color="#3780B2"/>
<stop offset="1" stop-color="#DA6F5B"/>
</linearGradient>
<linearGradient id="paint4_linear" x1="20.3104" y1="30.7217" x2="20.3104" y2="41.3653" gradientUnits="userSpaceOnUse">
<stop stop-color="#3780B2"/>
<stop offset="1" stop-color="#DA6F5B"/>
</linearGradient>
<linearGradient id="paint5_linear" x1="46.1736" y1="31.6074" x2="46.1736" y2="38.3588" gradientUnits="userSpaceOnUse">
<stop stop-color="#3780B2"/>
<stop offset="1" stop-color="#DA6F5B"/>
</linearGradient>
</defs>
</svg>
