<svg width="64" height="64" viewBox="0 0 64 64" fill="none" xmlns="http://www.w3.org/2000/svg">
<path fill-rule="evenodd" clip-rule="evenodd" d="M54.6275 9.37256C48.5835 3.32861 40.5476 0 32 0C25.8571 0 19.8896 1.74561 14.7424 5.04785C14.3066 5.32764 14.18 5.90771 14.4596 6.34326C14.7393 6.77881 15.319 6.90576 15.755 6.62598C20.5994 3.51807 26.2169 1.875 32 1.875C40.0468 1.875 47.6118 5.0083 53.3016 10.6982C58.9915 16.3882 62.125 23.9531 62.125 32C62.125 48.6489 48.6515 62.125 32 62.125C29.0246 62.125 26.0818 61.6904 23.2535 60.834C22.7579 60.6836 22.2345 60.9639 22.0845 61.4595C21.9344 61.9551 22.2144 62.478 22.7099 62.6284C25.7147 63.5386 28.8404 64 32 64C49.6855 64 64 49.688 64 32C64 23.4526 60.6714 15.4165 54.6275 9.37256ZM56.8701 30.7061C56.7134 30.9048 56.4774 31.0396 56.2054 31.0605C55.6873 31.1011 55.2385 30.7134 55.1989 30.1978C54.7527 24.3696 52.1414 18.9585 47.8461 14.9619C43.5286 10.9443 37.901 8.73193 32 8.73193C19.17 8.73193 8.73212 19.1699 8.73212 32C8.73212 44.8301 19.17 55.2676 32 55.2676C44.1591 55.2676 54.273 45.895 55.1989 33.8027C55.2385 33.2861 55.6911 32.9009 56.2053 32.9395C56.7216 32.979 57.1078 33.4297 57.0685 33.9458C56.0655 47.042 45.112 57.1426 32 57.1426C18.1362 57.1426 6.85712 45.8638 6.85712 32C6.85712 18.1362 18.1362 6.85693 32 6.85693C38.3768 6.85693 44.4579 9.24805 49.1234 13.5894C53.7646 17.9077 56.5862 23.7554 57.0686 30.0542C57.0809 30.2153 57.0518 30.3696 56.9902 30.5073C56.9717 30.5488 56.9503 30.5889 56.9261 30.627C56.9088 30.6543 56.8901 30.6807 56.8701 30.7061ZM32.9375 14.3071C32.9375 14.8247 32.5178 15.2446 32 15.2446C31.4822 15.2446 31.0625 14.8247 31.0625 14.3071V12.9312C31.0625 12.4131 31.4822 11.9937 32 11.9937C32.5178 11.9937 32.9375 12.4131 32.9375 12.9312V14.3071ZM44.7701 17.8745C45.1361 17.5083 45.7297 17.5083 46.0959 17.8745C46.4619 18.2407 46.4619 18.8345 46.0959 19.2002L45.1229 20.1733C44.9399 20.3564 44.6999 20.4478 44.46 20.4478C44.22 20.4478 43.9801 20.3564 43.797 20.1733C43.4308 19.8071 43.4308 19.2134 43.7971 18.8477L44.7701 17.8745ZM49.591 31.0625C49.0731 31.0625 48.6535 31.4824 48.6535 32C48.6535 32.5181 49.0731 32.9375 49.591 32.9375H50.967C51.4849 32.9375 51.9045 32.5181 51.9045 32C51.9045 31.4824 51.4849 31.0625 50.967 31.0625H49.591ZM43.7247 43.7969C44.0909 43.4312 44.6844 43.4312 45.0506 43.7969L46.0236 44.77C46.3898 45.1362 46.3898 45.7295 46.0236 46.0957C45.9802 46.1392 45.9335 46.1772 45.8843 46.2104C45.861 46.2261 45.8372 46.2412 45.8128 46.2544L45.7708 46.2764C45.734 46.2939 45.6963 46.3096 45.658 46.3223C45.6007 46.3413 45.542 46.3545 45.4826 46.3623C45.4588 46.3652 45.4349 46.3677 45.411 46.3687L45.3607 46.3701C45.1207 46.3701 44.8807 46.2788 44.6976 46.0957L43.7247 45.123C43.3586 44.7568 43.3586 44.1631 43.7247 43.7969ZM30.9604 49.5913V50.9673C30.9604 51.4854 31.3801 51.9048 31.8979 51.9048C32.4156 51.9048 32.8354 51.4854 32.8354 50.9673V49.5913C32.8354 49.0732 32.4158 48.6538 31.8979 48.6538C31.38 48.6538 30.9604 49.0732 30.9604 49.5913ZM17.8021 44.6978L18.7751 43.7246C19.1412 43.3589 19.7349 43.3589 20.1009 43.7246C20.467 44.0908 20.467 44.6846 20.1009 45.0508L19.1279 46.0234C18.9449 46.2065 18.7049 46.2979 18.465 46.2979C18.2251 46.2979 17.9851 46.2065 17.8021 46.0234C17.436 45.6572 17.436 45.0635 17.8021 44.6978ZM12.931 30.9604C12.4133 30.9604 11.9935 31.3804 11.9935 31.8979C11.9935 32.416 12.4133 32.8354 12.931 32.8354H14.307C14.8248 32.8354 15.2445 32.416 15.2445 31.8979C15.2445 31.3804 14.8248 30.9604 14.307 30.9604H12.931ZM19.2003 17.8022L20.1733 18.7754C20.5392 19.1411 20.5394 19.7349 20.1733 20.1011C19.9901 20.2842 19.7501 20.3755 19.5103 20.3755C19.2704 20.3755 19.0305 20.2842 18.8474 20.1011L17.8744 19.1279C17.5084 18.7617 17.5082 18.1685 17.8744 17.8022C18.2407 17.436 18.834 17.436 19.2003 17.8022ZM34.5123 34.3462L41.19 37.7798C41.6533 38.0181 42.217 37.8325 42.4525 37.3745C42.6894 36.9141 42.5079 36.3491 42.0475 36.1123L35.372 32.6797C35.4163 32.46 35.4398 32.2324 35.4398 32C35.4398 30.4282 34.3799 29.1006 32.9376 28.6909V19.1353C32.9376 18.6177 32.5179 18.1978 32.0001 18.1978C31.4824 18.1978 31.0626 18.6177 31.0626 19.1353V28.6909C29.9186 29.0156 29.016 29.9185 28.6913 31.0625H24.038C23.5203 31.0625 23.1005 31.4819 23.1005 32C23.1005 32.5176 23.5203 32.9375 24.038 32.9375H28.6913C29.1006 34.3794 30.4285 35.4395 32.0001 35.4395C32.9906 35.4399 33.8841 35.0186 34.5123 34.3462ZM32 33.5649C31.1373 33.5649 30.4352 32.8628 30.4352 32C30.4352 31.1372 31.1371 30.4351 32 30.4351C32.8627 30.4351 33.5646 31.1372 33.5646 32C33.5648 32.8628 32.8627 33.5649 32 33.5649ZM1.875 32C1.875 43.9282 8.92853 54.75 19.8445 59.5698C20.3181 59.7793 20.5325 60.333 20.3234 60.8066C20.1685 61.1572 19.8253 61.3657 19.4653 61.3657C19.3387 61.3657 19.2101 61.3398 19.087 61.2856C7.49213 56.1655 0 44.6704 0 32C0 22.4258 4.23688 13.4321 11.624 7.3252C12.0233 6.99561 12.6141 7.05176 12.9438 7.4502C13.2739 7.84961 13.2178 8.44043 12.8187 8.77051C5.86389 14.52 1.875 22.9868 1.875 32Z" fill="url(#paint0_linear)"/>
<defs>
<linearGradient id="paint0_linear" x1="10.2017" y1="7.11035" x2="10.2017" y2="61.3656" gradientUnits="userSpaceOnUse">
<stop stop-color="#3D80B0"/>
<stop offset="1" stop-color="#D9705D"/>
</linearGradient>
</defs>
</svg>
