<svg width="54" height="64" viewBox="0 0 54 64" fill="none" xmlns="http://www.w3.org/2000/svg">
<path d="M40.247 21.8811L52.6899 8.16689C53.1651 7.64041 53.1235 6.82838 52.597 6.35326C52.3618 6.14106 52.0565 6.02324 51.7397 6.02244H10.4558V4.73834C10.4558 2.1215 8.33447 0 5.71746 0C3.10046 0 0.979126 2.1215 0.979126 4.73834V59.2742C0.986028 61.891 3.11314 64.0069 5.72998 64C5.74299 64 5.75583 63.9998 5.76883 63.9997C8.38567 63.9997 10.5072 61.8782 10.5072 59.2613V38.0094H51.7269C52.436 38.0085 53.0102 37.4329 53.0094 36.7237C53.009 36.4123 52.8954 36.1117 52.6899 35.8778L40.247 21.8811ZM7.8876 59.2742C7.8876 60.4727 6.91601 61.4443 5.71746 61.4443C4.51891 61.4443 3.54733 60.4727 3.54733 59.2742V4.69982C3.54733 3.50127 4.51891 2.52968 5.71746 2.52968C6.91601 2.52968 7.8876 3.50127 7.8876 4.69982V59.2742ZM10.4558 35.4412V8.56497L48.7734 8.55212L37.5118 20.9694C37.0708 21.4582 37.0708 22.2013 37.5118 22.6901L48.8119 35.4412H10.4558Z" fill="url(#paint0_linear)"/>
<defs>
<linearGradient id="paint0_linear" x1="26.9999" y1="0" x2="26.9999" y2="64" gradientUnits="userSpaceOnUse">
<stop stop-color="#3380B3"/>
<stop offset="1" stop-color="#DD6E59"/>
</linearGradient>
</defs>
</svg>
