<svg width="62" height="62" viewBox="0 0 62 62" fill="none" xmlns="http://www.w3.org/2000/svg">
<path d="M62 44.758C62 43.358 61.455 42.041 60.465 41.051L58 38.586V15C58 12.243 55.757 10 53 10H46.976C45.098 7.188 42.421 4.914 39.179 3.502C37.526 1.318 34.961 0 32.146 0H31.855C29.04 0 26.475 1.318 24.821 3.502C21.578 4.914 18.901 7.188 17.024 10H5C2.243 10 0 12.243 0 15V45C0 47.757 2.243 50 5 50H18.963C18.795 51.595 17.966 53.041 16.667 54H14C12.346 54 11 55.346 11 57V59C11 60.654 12.346 62 14 62H44C45.654 62 47 60.654 47 59V57C47 55.346 45.654 54 44 54H41.334C40.035 53.041 39.206 51.595 39.038 50H57V49.976C59.776 49.846 62 47.565 62 44.758ZM53 12C54.654 12 56 13.346 56 15V36.586L54 34.586V16C54 14.897 53.103 14 52 14H48.965C48.723 13.315 48.444 12.647 48.124 12H53ZM32 38C35.579 38 38.909 36.938 41.715 35.129L44.586 38L43.586 39L44.586 40H6V16H14.446C14.153 17.293 14 18.633 14 20C14 29.925 22.075 38 32 38ZM46 36.586L43.36 33.946C44.307 33.173 45.173 32.307 45.946 31.36L48.586 34L46 36.586ZM50 32.586L47.129 29.715C48.938 26.909 50 23.579 50 20C50 18.633 49.847 17.293 49.554 16H52V32.586L51 31.586L50 32.586ZM23.05 12.047C23.144 14.341 23.394 16.631 23.786 18.889C23.543 19.076 23.31 19.277 23.091 19.496C21.742 20.844 21 22.636 21 24.543V24.782C20.36 23.315 20 21.7 20 20C20 17.023 21.101 14.226 23.05 12.047ZM23 24.543C23 23.17 23.534 21.88 24.505 20.909C25.024 20.39 25.65 19.994 26.335 19.738L27.222 26.834L32 23.25L36.778 26.834L37.665 19.738C38.349 19.995 38.975 20.39 39.495 20.909C40.466 21.88 41 23.17 41 24.543V27.911C38.799 30.412 35.585 32 32 32C28.415 32 25.201 30.412 23 27.911V24.543ZM35.485 19.086C35.563 19.119 35.639 19.154 35.721 19.18L35.223 23.166L33.409 21.806L35.485 19.086ZM32 15C29.794 15 28 13.206 28 11V8.721C29.473 8.231 30.845 7.43 32 6.392C33.155 7.43 34.527 8.23 36 8.721V11C36 13.206 34.206 15 32 15ZM32 17C32.576 17 33.132 16.914 33.659 16.761L33.738 17.078C33.796 17.311 33.892 17.526 34 17.733L32 20.352L29.999 17.733C30.107 17.526 30.202 17.311 30.26 17.078L30.339 16.761C30.868 16.914 31.424 17 32 17ZM28.516 19.087L30.593 21.806L28.779 23.166L28.281 19.181C28.361 19.154 28.438 19.12 28.516 19.087ZM40.909 19.495C40.691 19.277 40.457 19.076 40.214 18.888C40.606 16.63 40.856 14.34 40.95 12.046C42.899 14.226 44 17.023 44 20C44 21.7 43.64 23.315 43 24.782V24.543C43 22.636 42.258 20.844 40.909 19.495ZM31.854 2H32.145C34.758 2 37.108 3.452 38.276 5.789C38.75 6.736 39 7.797 39 8.854V9.901C39 12.563 38.775 15.234 38.355 17.863C38.106 17.77 37.854 17.682 37.594 17.617L36.406 17.319C36.047 17.23 35.768 16.952 35.678 16.592L35.496 15.864C37.01 14.776 38 13.003 38 11V8.721C38 7.859 37.45 7.096 36.633 6.825C35.264 6.368 34.001 5.588 32.981 4.567L32 3.586L31.02 4.566C29.999 5.587 28.737 6.367 27.369 6.823C26.55 7.096 26 7.858 26 8.721V11C26 13.003 26.99 14.775 28.503 15.866L28.321 16.594C28.232 16.953 27.954 17.232 27.593 17.322L26.407 17.619C26.147 17.684 25.895 17.772 25.645 17.865C25.225 15.234 25 12.563 25 9.901V8.854C25 7.796 25.25 6.736 25.724 5.789C26.892 3.452 29.241 2 31.854 2ZM23.312 6.574C23.113 7.318 23 8.085 23 8.854V9.317C19.825 11.989 18 15.846 18 20C18 27.72 24.28 34 32 34C39.72 34 46 27.72 46 20C46 15.846 44.175 11.989 41 9.317V8.854C41 8.085 40.887 7.318 40.688 6.573C45.2 9.486 48 14.494 48 20C48 28.822 40.822 36 32 36C23.178 36 16 28.822 16 20C16 14.494 18.8 9.486 23.312 6.574ZM2 45V15C2 13.346 3.346 12 5 12H15.876C15.555 12.647 15.276 13.315 15.035 14H6C4.897 14 4 14.897 4 16V40C4 41.103 4.897 42 6 42H46.586L52.586 48H5C3.346 48 2 46.654 2 45ZM45 57V59C45 59.552 44.552 60 44 60H14C13.448 60 13 59.552 13 59V57C13 56.448 13.448 56 14 56H44C44.552 56 45 56.448 45 57ZM38.529 54H19.471C20.329 52.845 20.849 51.464 20.963 50H37.038C37.152 51.464 37.672 52.845 38.529 54ZM56.758 48C55.892 48 55.077 47.663 54.465 47.051L46.414 39L51 34.414L59.051 42.465C59.663 43.077 60 43.892 60 44.758C60 46.546 58.546 48 56.758 48Z" fill="url(#paint0_linear)"/>
<defs>
<linearGradient id="paint0_linear" x1="31" y1="0" x2="31" y2="62" gradientUnits="userSpaceOnUse">
<stop stop-color="#3380B3"/>
<stop offset="1" stop-color="#DD6E59"/>
</linearGradient>
</defs>
</svg>
