<svg width="62" height="62" viewBox="0 0 62 62" fill="none" xmlns="http://www.w3.org/2000/svg">
<path fill-rule="evenodd" clip-rule="evenodd" d="M57.21 7C54.859 7 52.872 8.684 52.485 11.003L52.128 13.144C50.901 13.52 50 14.651 50 16V18.343C50 19.679 50.52 20.935 51.464 21.879L52 22.414V27.763C52 29.378 51.103 30.83 49.659 31.552C49.073 31.846 48.418 32 47.764 32H35.82L35.161 28.708C37.464 27.478 39.274 25.452 40.236 23H41C43.206 23 45 21.206 45 19C45 16.794 43.206 15 41 15V12.498C43.346 11.516 45 9.198 45 6.5C45 2.916 42.084 0 38.5 0H26.685C20.242 0 15 5.241 15 11.685C15 12.64 15.117 13.594 15.349 14.52L15.858 16.555C15.329 17.233 15 18.075 15 19C15 21.206 16.794 23 19 23H19.764C20.726 25.452 22.535 27.478 24.839 28.708L24.15 32.15L18.002 33.379C15.71 33.837 13.642 35.096 12.181 36.921C10.775 38.681 10 40.889 10 43.142V56C10 59.309 12.691 62 16 62H44C45.103 62 46 61.103 46 60V42H48.185C52.168 42 55.958 40.28 58.581 37.282C60.786 34.764 62 31.533 62 28.185V11.79C62 9.148 59.852 7 57.21 7ZM52 16C52 15.448 52.449 15 53 15H55C55.551 15 56 15.448 56 16C56 16.552 55.551 17 55 17H54V19H55C56.654 19 58 17.654 58 16C58 14.346 56.654 13 55 13H54.18L54.458 11.331C54.684 9.98 55.841 9 57.21 9C58.748 9 60 10.252 60 11.79V21H53.414L52.879 20.465C52.312 19.898 52 19.145 52 18.343V16ZM36.234 34L34.581 36.755L32.244 35.82L35.277 34H36.234ZM43 19C43 20.103 42.103 21 41 21H40.809C40.929 20.35 41 19.684 41 19V17C42.103 17 43 17.897 43 19ZM19 21C17.897 21 17 20.103 17 19C17 17.897 17.897 17 19 17V19C19 19.684 19.071 20.35 19.191 21H19ZM19 13.031V15C18.505 15 18.036 15.102 17.598 15.267L17.289 14.034C17.097 13.267 17 12.477 17 11.685C17 6.345 21.344 2 26.685 2H38.5C40.981 2 43 4.019 43 6.5C43 8.981 40.981 11 38.5 11H37.487C36.116 11 35 9.884 35 8.513C35 7.441 35.684 6.493 36.7 6.155L37.316 5.95L36.684 4.052L36.068 4.258C34.233 4.868 33 6.578 33 8.513C33 8.59404 33.0107 8.67232 33.0213 8.75057L33.0213 8.75066L33.0213 8.75075L33.0213 8.75085L33.0214 8.75094L33.0214 8.75104C33.0276 8.79718 33.0339 8.84332 33.038 8.89C31.194 8.706 29.389 8.279 27.659 7.587L27.271 7.431C26.555 7.145 25.801 7 25.031 7C21.706 7 19 9.706 19 13.031ZM21 19V13.031C21 10.809 22.809 9 25.031 9C25.546 9 26.05 9.097 26.527 9.287L26.915 9.443C29.098 10.315 31.388 10.808 33.727 10.945C34.527 12.178 35.91 13 37.487 13H38.5C38.6564 13 38.8093 12.9889 38.9628 12.9777L39 12.975V19C39 23.963 34.962 28 30 28C25.038 28 21 23.963 21 19ZM30 30C31.142 30 32.244 29.824 33.28 29.5L33.881 32.505L30 34.834L26.119 32.505L26.72 29.5C27.756 29.824 28.858 30 30 30ZM24.817 34.056L27.757 35.82L25.407 36.76L23.848 34.25L24.817 34.056ZM22 60V58H44V60H22ZM22 56V42H44V56H22ZM57.077 35.966C54.833 38.529 51.592 40 48.185 40H22C20.897 40 20 40.897 20 42V54H16V56H20V60H16C13.794 60 12 58.206 12 56V43.142C12 41.342 12.619 39.577 13.743 38.172C14.91 36.713 16.562 35.707 18.395 35.341L21.753 34.669L24.593 39.24L29.911 37.113L30 37.166L30.089 37.113L35.42 39.245L38.566 34H47.764C48.726 34 49.691 33.772 50.553 33.342C52.679 32.279 54 30.142 54 27.764V23H60V28.185C60 31.048 58.962 33.812 57.077 35.966ZM26 17C26.551 17 27 17.448 27 18H29C29 16.346 27.654 15 26 15C24.346 15 23 16.346 23 18H25C25 17.448 25.449 17 26 17ZM34 17C34.551 17 35 17.448 35 18H37C37 16.346 35.654 15 34 15C32.346 15 31 16.346 31 18H33C33 17.448 33.449 17 34 17ZM35 20V21C35 23.757 32.757 26 30 26C27.243 26 25 23.757 25 21V20H35ZM32.828 22H27.171C27.584 23.164 28.695 24 29.999 24C31.303 24 32.415 23.164 32.828 22ZM36 49C36 50.654 34.654 52 33 52C31.346 52 30 50.654 30 49C30 47.346 31.346 46 33 46C34.654 46 36 47.346 36 49ZM34 49C34 48.448 33.551 48 33 48C32.449 48 32 48.448 32 49C32 49.552 32.449 50 33 50C33.551 50 34 49.552 34 49ZM10.852 30.839C12.746 29.585 14 27.437 14 25C14 21.141 10.86 18 7 18C3.14 18 0 21.141 0 25C0 27.437 1.254 29.585 3.148 30.839L3.859 34.393C4.045 35.324 4.87 36 5.82 36H8.18C9.13 36 9.955 35.324 10.141 34.393L10.852 30.839ZM2 25C2 22.243 4.243 20 7 20C9.757 20 12 22.243 12 25C12 27.414 10.279 29.434 8 29.899V27.816C9.161 27.402 10 26.302 10 25C10 23.346 8.654 22 7 22C5.346 22 4 23.346 4 25C4 26.302 4.839 27.402 6 27.816V29.899C3.721 29.434 2 27.414 2 25ZM6 25C6 24.448 6.449 24 7 24C7.551 24 8 24.448 8 25C8 25.552 7.551 26 7 26C6.449 26 6 25.552 6 25ZM5.82 34L5.38 31.803C5.901 31.927 6.442 32 7 32C7.558 32 8.099 31.927 8.62 31.803L8.18 34H5.82ZM8 12H6V16H8V12ZM1.10652 13.3716L2.95409 12.6058L4.48612 16.3018L2.63855 17.0676L1.10652 13.3716ZM11.0565 12.6072L9.52443 16.3032L11.372 17.069L12.904 13.373L11.0565 12.6072Z" fill="url(#paint0_linear)"/>
<defs>
<linearGradient id="paint0_linear" x1="30" y1="4.38369e-08" x2="29" y2="63" gradientUnits="userSpaceOnUse">
<stop stop-color="#3380B3"/>
<stop offset="1" stop-color="#DD6E59"/>
</linearGradient>
</defs>
</svg>
